# xmcd
#
# Track frame offsets: 
#        187
#        16085
#        28255
#        43895
#        63172
#        79327
#        93172
#        109607
#        125210
#        139102
#        155940
#        172392
#
# Disc length: 2647 seconds
#
# Revision: 0
# Processed by: cddbd v1.4PL0 Copyright (c) Steve Scherf et al.
# Submitted via: ExactAudioCopy v0.90a11
#
DISCID=aa0a550c
DTITLE=The Judds - In Concert
DYEAR=1900
DGENRE=
TTITLE0=Had A Dream (For The Heart)
TTITLE1=Blue Nun Cafe
TTITLE2=Mr. Pain
TTITLE3=Love Is Alive
TTITLE4=Drops Of Water
TTITLE5=Bye Bye Baby Blues
TTITLE6=Why Not Me
TTITLE7=John Deere Tractor
TTITLE8=My Baby's Gone
TTITLE9=Mama He's Crazy
TTITLE10=Girls' Night Out
TTITLE11=Don't You Hear Jerusalem Moan
EXTD=
EXTT0=
EXTT1=
EXTT2=
EXTT3=
EXTT4=
EXTT5=
EXTT6=
EXTT7=
EXTT8=
EXTT9=
EXTT10=
EXTT11=
PLAYORDER=
